<svg xmlns="http://www.w3.org/2000/svg" viewBox="0 0 499 235.51"><defs><style>.cls-1{fill:#4390bf;}.cls-2{isolation:isolate;}.cls-3{fill:#133e77;}</style></defs><g id="Layer_2" data-name="Layer 2"><g id="Layer_1-2" data-name="Layer 1"><g id="Group_397" data-name="Group 397"><g id="Group_396" data-name="Group 396"><path id="Path_441" data-name="Path 441" class="cls-1" d="M116.79,58.09l5.59,14.8-2.32,2.44-15-4.92,11.87,11.33L113,85.83l-18.87-18,5.28-5.53,14.86,5.17-5.84-14.63,5.25-5.51,18.87,18-3.9,4.09Z"/><path id="Path_442" data-name="Path 442" class="cls-1" d="M157.89,49.38,153,45.74l-9.12,5.42.85,6.05-5.17,3.07-3.91-28,4.7-2.79,22.72,16.83ZM142,37.54l1.13,8.14,5.45-3.24Z"/><path id="Path_443" data-name="Path 443" class="cls-1" d="M184.7,19.3A7.69,7.69,0,0,1,183,28.56l9.25,6.52-6.52,2.41-8.16-5.85L173.9,33l2.89,7.8-5.3,2L162.44,18.3l9-3.33a13.45,13.45,0,0,1,8.61-1A8.06,8.06,0,0,1,184.7,19.3Zm-5.31,5.26a4,4,0,0,0-.09-3.24,3.31,3.31,0,0,0-2-2.34,6.78,6.78,0,0,0-3.84.59l-4,1.46,2.68,7.25L176,26.85a6,6,0,0,0,3.37-2.28Z"/><path id="Path_444" data-name="Path 444" class="cls-1" d="M197.27,6.85l5.55-1.11,2.1,10.5,7.27-12.38L219,2.49l-7.6,13.28c1.1,1.05,3.13,3,6.09,5.87s5.17,5,6.64,6.41l-6.46,1.3-9.29-8.63-1.91,3.35L208,31.31l-5.54,1.11Z"/><path id="Path_445" data-name="Path 445" class="cls-1" d="M262.09,21.52a8.24,8.24,0,0,0,6.94-3.1l3.46,4A13.17,13.17,0,0,1,249.28,13a13.23,13.23,0,0,1,4.26-9.51A12.85,12.85,0,0,1,263.13,0a13.23,13.23,0,0,1,10.22,5.32l-3.67,3.95a8.18,8.18,0,0,0-6.52-3.7,7.55,7.55,0,0,0-8,7,5.42,5.42,0,0,0,0,.57A8,8,0,0,0,257,19.12,6.94,6.94,0,0,0,262.09,21.52Z"/><path id="Path_446" data-name="Path 446" class="cls-1" d="M290.86,23.4A4.6,4.6,0,0,0,294.2,26a4.52,4.52,0,0,0,4.08-1,7.89,7.89,0,0,0,2.4-4.54l3-14.07,5.52,1.18-3.06,14.25a11.79,11.79,0,0,1-4.81,7.88,11.49,11.49,0,0,1-15.24-3.29A11.74,11.74,0,0,1,285,17.26L288,3l5.52,1.18-3,14.08A7.85,7.85,0,0,0,290.86,23.4Z"/><path id="Path_447" data-name="Path 447" class="cls-1" d="M325.53,40.86l-10.26-4.17,9.81-24.16,9.13,3.71a13.79,13.79,0,0,1,3.87,2.26,6.35,6.35,0,0,1,2,2.65A6.84,6.84,0,0,1,339.9,26a5.38,5.38,0,0,1-3.49,3.49,5.77,5.77,0,0,1-1.09.26l-1,.06A6.6,6.6,0,0,1,337,33.26a6.24,6.24,0,0,1-.26,4.34,7.13,7.13,0,0,1-3.5,3.77A9.24,9.24,0,0,1,325.53,40.86Zm-3.18-6.61,3.6,1.47a8.52,8.52,0,0,0,3.61.8,2.47,2.47,0,0,0,2-1.79,2.34,2.34,0,0,0-.29-2.7,10.64,10.64,0,0,0-3.6-2.08l-3.08-1.26Zm4-9.81,2.5,1a8.69,8.69,0,0,0,3.43.83c.84,0,1.48-.59,1.91-1.65a2.35,2.35,0,0,0-.11-2.51A8.09,8.09,0,0,0,331,20.27l-2.51-1Z"/><path id="Path_448" data-name="Path 448" class="cls-1" d="M358.39,59.13l1.14-6-8.84-5.86-5.07,3.4-5-3.32,23.51-15.71,4.57,3L363.4,62.45Zm3.74-19.49-6.84,4.56,5.29,3.49Z"/><path id="Path_449" data-name="Path 449" class="cls-1" d="M401.17,64.61l3.68,4.28-19.78,17-3.69-4.28,4.54-19.8L373.53,72.45l-3.68-4.29,19.78-17,3.45,4-4.64,20.37Z"/></g></g><g id="DRUG_COMPANY" data-name="DRUG COMPANY"><g class="cls-2"><path class="cls-1" d="M69.26,212.3Q73,215.75,73,221.9c0,4.09-1.23,7.34-3.68,9.72s-6.18,3.58-11.21,3.58h-9V208.86h9.31Q65.49,208.86,69.26,212.3ZM64.94,228a7.72,7.72,0,0,0,2.17-5.92,7.92,7.92,0,0,0-2.17-6Q62.78,214,58.29,214H55v16h3.73A8.74,8.74,0,0,0,64.94,228Z"/><path class="cls-1" d="M106.83,217.6q0,6.33-5,8.18l6.67,9.42h-7.24l-5.84-8.4H91.34v8.4H85.46V208.86h10c4.09,0,7,.69,8.76,2.07S106.83,214.54,106.83,217.6Zm-7.09,3.13a4,4,0,0,0,1.1-3.11,3.34,3.34,0,0,0-1.13-2.92,7.25,7.25,0,0,0-4-.79H91.34v7.8h4.3C97.65,221.71,99,221.38,99.74,220.73Z"/><path class="cls-1" d="M126.69,228.4a4.81,4.81,0,0,0,3.95,1.83,4.75,4.75,0,0,0,3.94-1.83,7.8,7.8,0,0,0,1.45-5V208.86h5.89v14.73q0,5.73-3.17,8.81a12.23,12.23,0,0,1-16.23,0q-3.18-3.09-3.18-8.79V208.86h5.88v14.55A7.74,7.74,0,0,0,126.69,228.4Z"/><path class="cls-1" d="M172.4,221.78h5.92v9.35c-2.62,2.92-6.23,4.38-10.86,4.38a13.4,13.4,0,0,1-9.74-3.85,13,13,0,0,1-3.94-9.71,13.15,13.15,0,0,1,4-9.78,13.39,13.39,0,0,1,9.69-3.92,14.38,14.38,0,0,1,9.86,3.73l-3.06,4.41a11.53,11.53,0,0,0-3.26-2.13,8.69,8.69,0,0,0-3.22-.58,7.7,7.7,0,0,0-5.65,2.28,8.07,8.07,0,0,0-2.3,6,8.17,8.17,0,0,0,2.2,6,7.15,7.15,0,0,0,5.26,2.24A10.09,10.09,0,0,0,172.4,229Z"/><path class="cls-1" d="M220.69,230a8.68,8.68,0,0,0,7.09-3.43l3.76,3.89a14.22,14.22,0,0,1-20.6,1.2,13.92,13.92,0,0,1,.08-19.49,13.54,13.54,0,0,1,9.82-3.92,13.94,13.94,0,0,1,10.86,4.94L228,217.34a8.55,8.55,0,0,0-6.94-3.47,8.06,8.06,0,0,0-5.67,2.17,7.54,7.54,0,0,0-2.36,5.84,8,8,0,0,0,2.23,5.9A7.34,7.34,0,0,0,220.69,230Z"/><path class="cls-1" d="M264.83,231.57a14.36,14.36,0,0,1-19.68,0,13.79,13.79,0,0,1,0-19.42,14.36,14.36,0,0,1,19.68,0,13.81,13.81,0,0,1,0,19.42Zm-2-9.69a8.61,8.61,0,0,0-2.26-6,7.45,7.45,0,0,0-11.12,0,9.09,9.09,0,0,0,0,12,7.49,7.49,0,0,0,11.12,0A8.52,8.52,0,0,0,262.83,221.88Z"/><path class="cls-1" d="M304.66,218.62,297.53,233H294l-7.09-14.4V235.2h-5.88V208.86H289l6.79,14.47,6.82-14.47h7.92V235.2h-5.88Z"/><path class="cls-1" d="M342.49,211.21q2.77,2.35,2.77,7.24t-2.84,7.14q-2.85,2.26-8.69,2.26h-3.51v7.35h-5.88V208.86h9.31C337.7,208.86,340.64,209.64,342.49,211.21Zm-4.31,10.37a5.09,5.09,0,0,0,1.05-3.47,3.69,3.69,0,0,0-1.37-3.24,7.59,7.59,0,0,0-4.28-1h-3.36v8.85h4C336.14,222.76,337.47,222.37,338.18,221.58Z"/><path class="cls-1" d="M374.24,235.2l-2.45-5.69h-11l-2.45,5.69H352l11.38-26.34h5.7L380.5,235.2Zm-7.95-18.5L363,224.35h6.6Z"/><path class="cls-1" d="M409.46,208.86h5.88V235.2h-5.88l-12.55-16.51V235.2H391V208.86h5.5l12.93,17Z"/><path class="cls-1" d="M440.75,235.2h-5.88V224.8l-9.13-15.94h6.37l5.7,9.8,5.69-9.8h6.37l-9.12,15.94Z"/></g></g><g id="COST_PLUS" data-name="COST PLUS" class="cls-2"><g class="cls-2"><path class="cls-3" d="M34.28,124.83a17.22,17.22,0,0,0-16,.5,16.34,16.34,0,0,0-6.14,6.18,17.76,17.76,0,0,0,0,17.27A16.56,16.56,0,0,0,18.28,155a16.79,16.79,0,0,0,8.59,2.27,18,18,0,0,0,7.26-1.59,20.68,20.68,0,0,0,6.47-4.4l5.7,6.35a30,30,0,0,1-9.24,6.4,26.15,26.15,0,0,1-10.69,2.34A26.49,26.49,0,0,1,13,162.9a25.45,25.45,0,0,1-9.53-9.43A25.75,25.75,0,0,1,0,140.29a25.14,25.14,0,0,1,3.54-13.15,25.46,25.46,0,0,1,9.64-9.32,27.45,27.45,0,0,1,13.55-3.39,27.47,27.47,0,0,1,10.62,2.16,26.19,26.19,0,0,1,8.88,6l-5.63,7.08A19.11,19.11,0,0,0,34.28,124.83Z"/><path class="cls-3" d="M102.54,117.82a25.87,25.87,0,0,1,9.71,35.65,25.72,25.72,0,0,1-9.71,9.43,28.81,28.81,0,0,1-27.38,0,25.65,25.65,0,0,1-9.71-9.43,25.61,25.61,0,0,1,9.71-35.65,29.34,29.34,0,0,1,27.38,0ZM80.4,125.37a17,17,0,0,0-8.6,14.92A16.82,16.82,0,0,0,74.15,149a17.42,17.42,0,0,0,6.28,6.28A16.64,16.64,0,0,0,89,157.62a16.31,16.31,0,0,0,8.46-2.31,16.9,16.9,0,0,0,6.17-6.28,17.83,17.83,0,0,0,0-17.45,16.79,16.79,0,0,0-6.17-6.21A16.46,16.46,0,0,0,89,123.1,17,17,0,0,0,80.4,125.37Z"/><path class="cls-3" d="M160.56,124.4a24,24,0,0,0-7.19-1.3,10,10,0,0,0-5.49,1.3,4.06,4.06,0,0,0-2,3.61,4.74,4.74,0,0,0,1.41,3.5,10.87,10.87,0,0,0,3.54,2.31,54,54,0,0,0,5.81,2,64.1,64.1,0,0,1,8.42,3,15,15,0,0,1,5.59,4.48,12.29,12.29,0,0,1,2.32,7.8,13.29,13.29,0,0,1-2.5,8.06,15.56,15.56,0,0,1-6.86,5.23,25.89,25.89,0,0,1-10,1.81A31.47,31.47,0,0,1,142,164a32.84,32.84,0,0,1-9.83-5.89l4.05-8.23a29.59,29.59,0,0,0,8.6,5.56,22.79,22.79,0,0,0,8.88,2,11.33,11.33,0,0,0,6.36-1.55,5.11,5.11,0,0,0,.9-7.8,10.54,10.54,0,0,0-3.57-2.28c-1.45-.58-3.42-1.23-5.93-1.95a70.66,70.66,0,0,1-8.38-3,14.66,14.66,0,0,1-5.56-4.37,12.07,12.07,0,0,1-2.31-7.7,12.86,12.86,0,0,1,2.35-7.69,15.07,15.07,0,0,1,6.64-5.09,25.58,25.58,0,0,1,9.94-1.81,33.65,33.65,0,0,1,9.71,1.45,32.59,32.59,0,0,1,8.56,3.9l-3.9,8.45A36.22,36.22,0,0,0,160.56,124.4Z"/><path class="cls-3" d="M190.17,115.08h41.24v8.59H215.67v42h-9.76v-42H190.17Z"/><path class="cls-3" d="M320.37,119.63q5.24,4.55,5.24,12.86,0,8.67-5.24,13.47t-14.77,4.8H294.55v14.88h-9.68V115.08H305.6Q315.14,115.08,320.37,119.63Zm-6.86,20.22q2.92-2.37,2.92-7.07t-2.92-6.94q-2.92-2.31-8.42-2.31H294.55v18.71h10.54Q310.58,142.24,313.51,139.85Z"/><path class="cls-3" d="M345.79,115.08h9.68V156.9h21.81v8.74H345.79Z"/><path class="cls-3" d="M408,154.23a12.29,12.29,0,0,0,9.1,3.39q5.7,0,9-3.39t3.29-9.39V115.08h9.68v29.76a23.48,23.48,0,0,1-2.68,11.45,18.06,18.06,0,0,1-7.62,7.47,24.64,24.64,0,0,1-11.66,2.6,25.24,25.24,0,0,1-11.81-2.6,18,18,0,0,1-7.7-7.47,23.48,23.48,0,0,1-2.67-11.45V115.08h9.68v29.76Q404.61,150.84,408,154.23Z"/><path class="cls-3" d="M486.61,124.4a24,24,0,0,0-7.19-1.3,10,10,0,0,0-5.49,1.3,4.08,4.08,0,0,0-2,3.61,4.74,4.74,0,0,0,1.41,3.5,11,11,0,0,0,3.54,2.31,54,54,0,0,0,5.81,2,63.57,63.57,0,0,1,8.42,3,15,15,0,0,1,5.6,4.48,12.35,12.35,0,0,1,2.31,7.8,13.35,13.35,0,0,1-2.49,8.06,15.56,15.56,0,0,1-6.86,5.23,25.94,25.94,0,0,1-10,1.81,31.47,31.47,0,0,1-11.56-2.2,32.79,32.79,0,0,1-9.82-5.89l4-8.23a29.73,29.73,0,0,0,8.6,5.56,22.84,22.84,0,0,0,8.89,2,11.32,11.32,0,0,0,6.35-1.55,5.11,5.11,0,0,0,.9-7.8,10.44,10.44,0,0,0-3.57-2.28q-2.18-.87-5.92-1.95a70,70,0,0,1-8.38-3,14.7,14.7,0,0,1-5.57-4.37,12.07,12.07,0,0,1-2.31-7.7,12.86,12.86,0,0,1,2.35-7.69,15.1,15.1,0,0,1,6.65-5.09,25.5,25.5,0,0,1,9.93-1.81,33.65,33.65,0,0,1,9.71,1.45,32.44,32.44,0,0,1,8.56,3.9l-3.9,8.45A36.22,36.22,0,0,0,486.61,124.4Z"/></g></g></g></g></svg>